<?xml version="1.0" standalone="no"?>
<!DOCTYPE svg PUBLIC "-//W3C//DTD SVG 20010904//EN"
 "http://www.w3.org/TR/2001/REC-SVG-20010904/DTD/svg10.dtd">
<svg version="1.0" xmlns="http://www.w3.org/2000/svg"
 width="1028.000000pt" height="201.000000pt" viewBox="0 0 1028.000000 201.000000"
 preserveAspectRatio="xMidYMid meet">

<g transform="translate(0.000000,201.000000) scale(0.100000,-0.100000)"
fill="#000000" stroke="none">
<path d="M3343 1669 c-24 -4 -59 -15 -78 -25 -50 -23 -122 -109 -146 -174 -56
-147 29 -334 177 -390 132 -49 271 3 349 130 60 98 59 215 -1 316 -67 112
-182 167 -301 143z m119 -98 c144 -61 167 -271 42 -380 -36 -32 -39 -33 -115
-29 -70 3 -81 6 -109 33 -52 49 -70 95 -70 176 0 59 5 80 25 115 29 49 65 78
115 92 51 15 64 14 112 -7z"/>
<path d="M4545 1674 c-108 -28 -157 -75 -170 -164 -12 -87 48 -150 173 -183
103 -28 150 -54 157 -88 5 -20 1 -38 -10 -55 -16 -25 -19 -26 -108 -22 -70 2
-103 8 -138 26 -25 12 -48 22 -52 22 -9 0 -37 -56 -37 -73 0 -29 143 -77 231
-77 157 0 243 79 225 204 -11 73 -54 106 -196 150 -129 40 -148 57 -135 114
15 69 117 76 257 17 12 -5 21 2 33 29 9 19 14 39 11 45 -18 29 -188 68 -241
55z"/>
<path d="M5107 1673 c-9 -8 -9 -136 -1 -157 6 -16 73 -24 74 -8 1 15 2 138 1
155 -1 12 -10 17 -34 17 -19 0 -37 -3 -40 -7z"/>
<path d="M5980 1589 l0 -90 38 3 37 3 3 88 3 87 -41 0 -40 0 0 -91z"/>
<path d="M6605 1673 c-125 -27 -187 -73 -234 -173 -34 -73 -36 -181 -3 -252
45 -100 146 -176 244 -186 85 -8 189 33 237 94 28 36 27 42 -12 60 -34 16 -34
16 -81 -20 -43 -33 -53 -36 -112 -36 -85 0 -132 24 -161 82 -35 69 -45 122
-33 171 25 96 63 141 137 163 66 19 101 12 158 -32 54 -40 64 -42 94 -10 23
24 23 25 5 49 -29 39 -92 76 -143 82 -25 4 -53 8 -61 10 -8 1 -24 0 -35 -2z"/>
<path d="M6989 1670 c-6 -4 -8 -120 -7 -306 l3 -299 47 -3 47 -3 3 133 3 133
145 0 145 0 5 -130 5 -130 39 -3 c21 -2 43 1 48 6 5 5 9 109 9 238 0 126 -1
259 -1 297 l0 67 -50 0 -49 0 -3 -122 -3 -123 -145 0 -145 0 -3 121 -3 122
-40 4 c-22 2 -44 1 -50 -2z"/>
<path d="M9795 1669 c-6 -8 68 -155 120 -239 72 -118 80 -140 85 -255 l5 -110
45 0 45 0 6 110 c6 112 14 139 71 235 11 19 36 64 56 100 19 36 39 69 43 75 5
5 9 26 9 48 0 38 0 38 -37 35 -37 -3 -40 -6 -85 -93 -26 -49 -57 -111 -69
-137 -35 -77 -48 -68 -124 88 -37 74 -72 137 -78 139 -34 10 -87 12 -92 4z"/>
<path d="M2490 1367 l0 -305 48 2 47 1 5 130 5 130 145 0 145 0 3 -127 c3
-133 5 -138 52 -133 14 1 31 3 38 4 9 1 12 68 12 302 l0 300 -47 -3 -48 -3 -5
-120 -5 -120 -145 0 -145 0 -5 120 -5 120 -47 3 -48 3 0 -304z"/>
<path d="M3805 1657 c-3 -7 -4 -143 -3 -302 l3 -290 170 0 c157 0 174 2 215
23 54 27 80 61 87 113 7 53 -11 97 -60 141 l-41 37 26 28 c72 76 60 205 -22
248 -39 20 -368 22 -375 2z m320 -92 c18 -18 25 -35 25 -65 0 -56 -26 -80 -87
-81 -27 0 -66 -2 -88 -3 -66 -6 -75 5 -75 82 0 40 5 73 12 80 8 8 45 12 100
12 81 0 91 -2 113 -25z m22 -257 c18 -16 23 -32 23 -68 0 -72 -15 -80 -145
-81 -59 0 -112 4 -117 9 -5 5 -8 42 -6 83 l3 74 65 5 c106 8 151 3 177 -22z"/>
<path d="M5320 1381 c0 -159 3 -296 6 -305 9 -22 89 -22 98 0 3 9 6 96 6 195
0 152 2 179 15 179 8 0 15 -4 15 -8 0 -5 19 -31 43 -59 23 -28 89 -109 145
-181 57 -72 110 -133 116 -135 7 -3 28 -2 47 2 l34 7 0 294 0 295 -50 0 -50 0
-5 -189 c-3 -130 -9 -191 -17 -193 -6 -2 -25 13 -42 34 -60 74 -167 209 -221
281 -53 70 -56 72 -97 72 l-43 0 0 -289z"/>
<path d="M7637 1663 c-4 -3 -7 -136 -7 -293 0 -320 -1 -314 67 -308 l38 3 3
303 2 302 -48 0 c-27 0 -52 -3 -55 -7z"/>
<path d="M7887 1663 c-4 -3 -7 -138 -7 -300 l0 -293 23 -2 c24 -1 55 -1 75 1
9 1 12 47 12 197 0 139 3 195 11 192 6 -2 44 -67 84 -143 68 -130 75 -140 101
-140 27 0 34 9 89 115 82 157 85 162 98 157 8 -2 13 -60 17 -193 l5 -189 45 0
45 0 3 303 2 302 -57 0 -58 0 -89 -170 c-48 -94 -94 -170 -101 -170 -11 0 -40
53 -172 313 -13 24 -20 27 -67 27 -29 0 -56 -3 -59 -7z"/>
<path d="M8642 1368 l3 -303 24 -3 c12 -2 34 -1 47 2 l24 6 2 188 c2 139 6
187 15 187 13 0 63 -59 227 -264 90 -114 116 -132 155 -111 21 11 21 15 19
303 l-3 292 -47 3 c-27 2 -48 -1 -49 -5 0 -4 -2 -87 -3 -183 -3 -203 -3 -200
-15 -200 -5 0 -80 88 -165 195 -156 195 -156 195 -196 195 l-40 0 2 -302z"/>
<path d="M9312 1368 l3 -303 192 -2 c212 -2 217 -1 211 59 l-3 33 -150 5 -150
5 0 80 0 80 125 5 125 5 3 42 3 42 -128 3 -128 3 -3 69 c-2 38 1 73 7 79 5 5
70 11 143 13 73 1 136 3 141 3 4 1 7 19 7 41 l0 40 -200 0 -200 0 2 -302z"/>
<path d="M866 1564 c-13 -13 -16 -43 -16 -167 l0 -152 -87 -90 c-221 -229
-327 -335 -337 -337 -6 0 -15 -2 -21 -3 -5 -2 -22 -3 -37 -4 -50 -2 -58 -22
-58 -142 0 -61 5 -119 10 -130 10 -19 31 -19 866 -19 805 0 855 1 862 17 12
29 8 251 -4 263 -6 6 -33 13 -59 14 -41 3 -53 10 -90 47 -23 24 -117 121 -209
216 l-166 172 0 153 c0 160 -5 180 -42 170 -30 -8 -38 -43 -38 -178 l0 -124
-255 0 -255 0 0 139 c0 114 -3 143 -16 155 -8 9 -19 16 -24 16 -5 0 -16 -7
-24 -16z m779 -554 c98 -98 176 -183 171 -187 -8 -9 -1171 -15 -1224 -7 -18 3
-32 9 -30 14 2 5 79 88 171 184 l169 176 282 0 281 0 180 -180z m330 -347 l0
-68 -790 0 -790 0 -3 59 c-2 32 -1 64 1 70 3 8 222 10 793 9 l789 -3 0 -67z"/>
<path d="M847 1029 c-104 -129 -118 -164 -66 -164 21 0 44 22 118 110 76 91
91 115 89 140 -2 21 -9 31 -23 33 -16 2 -44 -26 -118 -119z"/>
<path d="M1007 694 c-15 -15 -7 -53 13 -59 27 -8 52 12 48 39 -3 21 -46 35
-61 20z"/>
<path d="M1157 694 c-25 -25 8 -70 43 -59 32 10 24 59 -10 63 -14 2 -29 0 -33
-4z"/>
<path d="M1306 684 c-9 -22 11 -54 34 -54 23 0 43 32 34 54 -4 9 -18 16 -34
16 -16 0 -30 -7 -34 -16z"/>
<path d="M990 1551 c-5 -11 -10 -59 -10 -106 0 -47 5 -95 10 -106 13 -23 55
-25 64 -3 8 20 8 198 0 218 -9 22 -51 20 -64 -3z"/>
<path d="M5540 795 c-9 -11 -10 -19 -3 -26 17 -17 48 -6 48 16 0 25 -28 31
-45 10z"/>
<path d="M4585 779 c-83 -23 -70 -127 19 -144 55 -11 64 -15 70 -32 4 -8 1
-22 -5 -29 -13 -16 -82 -19 -110 -4 -15 9 -21 7 -25 -5 -10 -25 26 -44 83 -45
63 0 106 30 106 73 0 39 -24 61 -88 81 -95 30 -85 71 15 69 33 -1 60 2 60 6 0
26 -75 44 -125 30z"/>
<path d="M2780 753 c-51 -110 -97 -222 -92 -227 13 -14 32 -4 49 24 17 30 20
31 83 28 56 -3 66 -6 75 -25 5 -13 16 -25 24 -28 35 -14 30 18 -21 134 -48
110 -55 121 -79 121 -18 0 -29 -8 -39 -27z m63 -74 c10 -22 15 -44 12 -50 -10
-15 -75 -11 -75 5 0 20 29 86 38 86 4 0 15 -18 25 -41z"/>
<path d="M3340 774 c0 -4 21 -39 46 -80 33 -53 47 -87 50 -121 6 -55 9 -61 32
-46 12 7 16 22 14 44 -2 25 10 55 43 113 25 44 45 83 45 88 0 4 -9 8 -19 8
-13 0 -30 -19 -51 -56 -17 -30 -36 -54 -42 -52 -6 2 -19 17 -27 34 -34 61 -46
74 -68 74 -13 0 -23 -3 -23 -6z"/>
<path d="M3027 736 c-19 -24 -23 -36 -15 -44 7 -7 15 -39 19 -72 8 -74 30
-102 73 -98 38 4 42 30 6 38 -23 5 -25 11 -28 63 -3 53 -2 57 23 63 31 8 32
22 1 33 -13 5 -26 19 -29 30 -7 30 -21 26 -50 -13z"/>
<path d="M5992 718 c-38 -10 -72 -58 -72 -100 0 -42 47 -88 96 -95 45 -6 84 9
84 32 0 11 -11 13 -48 8 -38 -4 -52 -2 -66 12 -25 25 -10 34 64 37 65 3 65 3
63 32 -4 55 -61 90 -121 74z m59 -38 c36 -20 23 -40 -25 -40 -53 0 -65 13 -34
34 26 19 33 19 59 6z"/>
<path d="M3658 705 c-52 -29 -56 -114 -8 -157 68 -62 170 -17 170 75 0 38 -5
49 -31 71 -35 30 -88 34 -131 11z m107 -49 c40 -60 -34 -127 -87 -79 -20 18
-23 54 -8 84 16 29 75 26 95 -5z"/>
<path d="M3910 645 c0 -67 3 -79 25 -101 22 -22 31 -24 92 -21 l68 4 0 94 c0
77 -3 94 -15 94 -11 0 -18 -18 -25 -65 -12 -77 -19 -90 -49 -90 -35 0 -48 23
-55 93 -5 48 -10 63 -23 65 -16 3 -18 -6 -18 -73z"/>
<path d="M4204 705 c-3 -6 -4 -50 -2 -96 3 -76 5 -84 23 -84 18 0 21 8 25 67
3 36 7 68 10 70 3 2 18 12 33 22 16 10 26 21 22 24 -12 12 -107 9 -111 -3z"/>
<path d="M4843 708 c-12 -6 -29 -26 -38 -45 -32 -68 23 -143 106 -143 36 0 59
14 59 37 0 9 -12 11 -45 6 -47 -6 -75 6 -75 33 0 11 17 14 69 14 39 0 72 4 76
10 11 18 -23 80 -50 90 -33 13 -74 12 -102 -2z m85 -34 c34 -24 26 -34 -28
-34 -53 0 -68 18 -32 39 24 14 34 13 60 -5z"/>
<path d="M5088 708 c-3 -7 -5 -50 -6 -96 0 -64 3 -85 14 -89 21 -8 26 1 26 44
-1 60 16 102 44 109 15 4 24 13 24 25 0 21 -12 24 -40 9 -13 -7 -21 -7 -25 0
-9 14 -32 12 -37 -2z"/>
<path d="M5261 708 c0 -7 17 -51 38 -98 31 -72 41 -85 60 -85 20 0 30 14 63
89 25 57 35 93 29 99 -15 15 -31 -2 -58 -64 -14 -32 -29 -59 -33 -59 -3 0 -20
28 -36 63 -17 36 -36 63 -46 65 -10 2 -18 -2 -17 -10z"/>
<path d="M5544 707 c-3 -8 -4 -51 -2 -98 3 -70 6 -84 21 -87 15 -3 17 7 17 97
0 84 -3 101 -15 101 -9 0 -18 -6 -21 -13z"/>
<path d="M5699 691 c-65 -66 -17 -171 79 -171 38 0 82 34 66 50 -9 9 -17 9
-32 1 -50 -26 -92 -2 -92 53 0 52 28 67 98 51 40 -9 45 16 7 33 -47 21 -94 15
-126 -17z"/>
</g>
</svg>
